<svg xmlns="http://www.w3.org/2000/svg" version="1.1" xmlns:xlink="http://www.w3.org/1999/xlink" xmlns:svgjs="http://svgjs.dev/svgjs" width="100%" height="100%" viewBox="0 0 1000 600"><rect width="1000" height="600" x="0" y="0" fill="#FFFF"/><g><rect width="333.3333333333333" height="333.3333333333333" rx="13.333333333333334" ry="13.333333333333334" y="202.7069735306874" fill="#f4f4f4" transform="matrix(0.6925792455958826,0,0,0.6925792455958825,0,44.17946913060783)" x="180.48475646972656"/><path d="M357.59619701647057 444.373645957211Q335.9410751283415 444.373645957211 320.68405743443236 435.022570596428Q305.42703974052324 425.671495235645 297.55244996302173 408.74659567914Q289.6778601855202 391.8216961226351 289.6778601855202 368.99085423300403L289.6778601855202 368.99085423300403Q289.6778601855202 346.92559746063006 298.91956624383795 330.0006979041251Q308.1612723021557 313.0757983476202 324.32058674140353 303.72472298683715Q340.452558855035 294.37364762605415 360.54916818303366 294.37364762605415L360.54916818303366 294.37364762605415Q375.6968165744775 294.37364762605415 396.9691459039781 299.1038699576783L396.9691459039781 299.1038699576783L403.449277075047 300.27958995918027L401.4806296306716 335.71524395793693L388.30162868360316 335.71524395793693L383.38001007266473 310.69701601899993Q380.61843518541593 308.345576015996 373.8375384325674 306.67769415340024Q367.0292993541026 305.0098122908044 357.18606213222574 305.0098122908044L357.18606213222574 305.0098122908044Q344.5812500231001 305.0098122908044 334.73801280122325 312.1735016022815Q324.89477557934634 319.36453323937485 319.28959882799984 333.3364616293167Q313.6844220766533 347.33573234487494 313.6844220766533 366.8034681836981L313.6844220766533 366.8034681836981Q313.6844220766533 385.3142226259498 318.6060406875917 400.48921334300996Q323.5276592985301 415.6368617344539 333.56229279972126 424.60514453660835Q343.5969263009124 433.54608501314647 358.3617821337277 433.54608501314647L358.3617821337277 433.54608501314647Q368.8065505191637 433.54608501314647 374.41172727051026 431.76883384808536Q380.0169040218568 430.0189250086406 383.95419891060754 426.65581895783265L383.95419891060754 426.65581895783265L392.2389235723539 407.37947939832384L404.62499707654894 408.9379919584543L399.9221170705411 436.9091910639544Q395.7660835768598 437.10058734326867 387.700097520044 439.6434236255868L387.700097520044 439.6434236255868Q380.61843518541593 441.83080967489286 374.0289347118817 443.08855665324376Q367.4394342383475 444.373645957211 357.59619701647057 444.373645957211L357.59619701647057 444.373645957211Z " fill="#0088cc" transform="matrix(0.6925792455958826,0,0,0.6925792455958825,0,44.17946913060783)"/><path d="M597.151428237848 370.9146077967957Q597.151428237848 359.2696145298106 601.7157974580732 349.8482883188328Q606.2801666782985 340.4464679592234 615.1943407536958 334.8873003192054Q624.1085148290931 329.3476385305559 636.6117655562914 329.3476385305559L636.6117655562914 329.3476385305559Q642.639073629153 329.3476385305559 647.0083843356936 330.478977909928Q651.3581891908655 331.5908114379316 657.3854972637271 333.5609024261485L657.3854972637271 333.5609024261485L656.8393334254094 355.19289159379747L647.7105949849589 355.19289159379747L644.60916461737 340.8560908379616Q643.7704130085251 336.93541471289626 633.9394639188091 336.93541471289626L633.9394639188091 336.93541471289626Q624.1085148290931 336.93541471289626 618.4128062294957 344.87429621986934Q612.7366034812668 352.7936718754739 612.7366034812668 367.4035545504685L612.7366034812668 367.4035545504685Q612.7366034812668 383.9835282136801 619.1150168787611 392.6246203699186Q625.512936127624 401.2462066747886 635.7730139474465 401.2462066747886L635.7730139474465 401.2462066747886Q641.6637810607289 401.2462066747886 646.9303609302195 399.4321624975196Q652.1969407997103 397.59861246888204 655.9810759651962 395.0823576423476L655.9810759651962 395.0823576423476L658.6533776026786 400.700042836471Q654.8692424371926 404.62071896153634 647.4960306199056 407.78066688323077Q640.1228188026187 410.9406148049252 632.5350426202783 410.9406148049252L632.5350426202783 410.9406148049252Q621.0265903128726 410.9406148049252 613.0877088058995 405.75205834090843Q605.1488272989264 400.54399602552314 601.1501277683872 391.4932809905465Q597.151428237848 382.4425659555698 597.151428237848 370.9146077967957L597.151428237848 370.9146077967957ZM670.883546410718 370.2123971475303Q670.883546410718 357.5726054607525 676.0721028747349 348.3073260607225Q681.2606593387517 339.04204666069256 689.7652105354108 334.18508966994Q698.2697617320699 329.3476385305559 707.9446640108381 329.3476385305559L707.9446640108381 329.3476385305559Q725.6559770534217 329.3476385305559 734.5701511288189 340.5830089188028Q743.4843252042162 351.81837930704967 743.4843252042162 370.0758561879509L743.4843252042162 370.0758561879509Q743.4843252042162 382.852188834308 738.2957687401994 392.117468234338Q733.0877064248141 401.4022534857364 724.6026610795235 406.1616812196466Q716.0981098828644 410.9406148049252 706.4037017527278 410.9406148049252L706.4037017527278 410.9406148049252Q688.7118945615127 410.9406148049252 679.7977204861154 399.70524441667834Q670.883546410718 388.46987402843143 670.883546410718 370.2123971475303L670.883546410718 370.2123971475303ZM707.2424533615726 402.94321574384674Q716.9368614917092 402.94321574384674 722.1449238070945 394.9263108313997Q727.3334802711113 386.9289117703212 727.3334802711113 371.20719556732297L727.3334802711113 371.20719556732297Q727.3334802711113 355.60251447253563 722.5545466858327 346.473776032085Q717.7756131005541 337.3450375916344 707.2424533615726 337.3450375916344L707.2424533615726 337.3450375916344Q697.5675510828045 337.3450375916344 692.3009712133137 345.3619425040814Q687.034391343823 353.3593415651599 687.034391343823 369.10056361952667L687.034391343823 369.10056361952667Q687.034391343823 384.6857388629455 691.949865888681 393.8144773033961Q696.865340433539 402.94321574384674 707.2424533615726 402.94321574384674L707.2424533615726 402.94321574384674ZM786.5922567285662 410.9406148049252Q778.1657289373811 410.9406148049252 771.1436224447268 406.72735090933264Q764.1215159520725 402.51408701374004 759.9862754619538 393.8144773033961Q755.8510349718351 385.0953617416837 755.8510349718351 372.3190290953265L755.8510349718351 372.3190290953265Q755.8510349718351 360.3814480578143 760.7665095166932 350.5504989680982Q765.6819840615512 340.71954987838217 774.8692400561072 335.0433471301533Q784.0760019020317 329.3476385305559 796.5792526292302 329.3476385305559L796.5792526292302 329.3476385305559Q803.7379000814637 329.3476385305559 809.6286671947461 330.88860078866617L809.6286671947461 330.88860078866617L809.6286671947461 304.6337248466865L795.3113722902787 302.93671577762836L795.3113722902787 296.90940770476675L820.5909556638342 294.3736470268638L821.0005785425723 294.3736470268638L824.1020089101613 296.6168199342395L824.1020089101613 402.2410050945813L832.2359489308192 402.2410050945813L832.2359489308192 408.69744189754954Q827.7496031160678 409.67273446597375 824.4531142347939 410.2384041556598Q821.1566253535202 410.80407384534584 817.4895252962451 410.80407384534584L817.4895252962451 410.80407384534584Q813.8419310903386 410.80407384534584 812.3009688322284 409.53619350639434Q810.7600065741182 408.2683131674429 810.7600065741182 404.2110960827982L810.7600065741182 404.2110960827982L810.7600065741182 399.70524441667834Q806.8198245976843 404.48417800195693 800.44141120019 407.72214932912533Q794.0434919513272 410.9406148049252 786.5922567285662 410.9406148049252L786.5922567285662 410.9406148049252ZM792.2099419226897 400.9731247556298Q797.6910861572337 400.9731247556298 802.4700197425124 398.5153874832008Q807.248953327791 396.0576502107718 809.6286671947461 392.8196788836034L809.6286671947461 392.8196788836034L809.6286671947461 341.4217605276476Q808.5168336667424 339.74425730995796 804.3620873252553 338.3983535655326Q800.2268468351367 337.07195567247567 795.5844542094375 337.07195567247567L795.5844542094375 337.07195567247567Q784.6416715917178 337.07195567247567 778.1072113832756 345.4204600581869Q771.5727511748335 353.78847029526656 771.5727511748335 371.20719556732297L771.5727511748335 371.20719556732297Q771.5727511748335 386.36324208063513 777.3269773285363 393.6779363438167Q783.0812034822391 400.9731247556298 792.2099419226897 400.9731247556298L792.2099419226897 400.9731247556298ZM854.8627365182608 444.3736440505071Q852.4635167999372 444.3736440505071 850.1423204870877 444.08105627997986Q847.8406300256065 443.80797436082105 846.8458316058138 443.242304671135L846.8458316058138 443.242304671135L846.8458316058138 431.03164171446394Q847.6845832146587 431.59731140415 850.1423204870877 431.8703933233087Q852.6000577595166 432.1434752424675 854.8627365182608 432.1434752424675L854.8627365182608 432.1434752424675Q861.5922552403879 432.1434752424675 866.7222941502991 427.4425650626628Q871.8523330602105 422.74165488285814 876.6312666454892 409.399652546815L876.6312666454892 409.399652546815L869.8822420719936 409.399652546815L843.1982373999073 339.88079826953737L836.741800596939 338.0472482408999L836.741800596939 331.4542704783522L870.5844527212591 331.4542704783522L870.5844527212591 338.0472482408999L859.7782110631189 339.74425730995796L873.5298362779001 381.1746856166184L879.9862730808684 401.67533540489524L886.0330870050984 381.03814465703897L898.5363377322968 339.74425730995796L889.115011521319 338.0472482408999L889.115011521319 331.4542704783522L917.3594843028841 331.4542704783522L917.3594843028841 338.0472482408999L910.3373778102298 339.74425730995796Q889.6806812110051 402.94321574384674 886.0330870050984 411.50628449461124L886.0330870050984 411.50628449461124Q881.2541534198199 423.58040649170295 877.3334772947546 430.3879486193039Q873.3932953183207 437.2149965982734 868.0486920433561 440.78456739870603Q862.72359461976 444.3736440505071 854.8627365182608 444.3736440505071L854.8627365182608 444.3736440505071ZM922.1189120367942 370.9146077967957Q922.1189120367942 359.2696145298106 926.6832812570195 349.8482883188328Q931.2476504772449 340.4464679592234 940.1813304040106 334.8873003192054Q949.0955044794079 329.3476385305559 961.5987552066063 329.3476385305559L961.5987552066063 329.3476385305559Q967.6260632794679 329.3476385305559 971.9758681346398 330.478977909928Q976.3451788411802 331.5908114379316 982.3724869140419 333.5609024261485L982.3724869140419 333.5609024261485L981.8068172243559 355.19289159379747L972.6780787839052 355.19289159379747L969.5961542676847 340.8560908379616Q968.7574026588399 336.93541471289626 958.9264535691239 336.93541471289626L958.9264535691239 336.93541471289626Q949.0955044794079 336.93541471289626 943.3997958798104 344.87429621986934Q937.7235931315815 352.7936718754739 937.7235931315815 367.4035545504685L937.7235931315815 367.4035545504685Q937.7235931315815 383.9835282136801 944.1020065290759 392.6246203699186Q950.4999257779386 401.2462066747886 960.740497746393 401.2462066747886L960.740497746393 401.2462066747886Q966.6507707110436 401.2462066747886 971.9173505805343 399.4321624975196Q977.1839304500251 397.59861246888204 980.968065615511 395.0823576423476L980.968065615511 395.0823576423476L983.6403672529934 400.700042836471Q979.8562320875074 404.62071896153634 972.4830202702203 407.78066688323077Q965.1098084529333 410.9406148049252 957.522032270593 410.9406148049252L957.522032270593 410.9406148049252Q945.9940741118189 410.9406148049252 938.0746984562143 405.75205834090843Q930.1358169492412 400.54399602552314 926.137117418702 391.4932809905465Q922.1189120367942 382.4425659555698 922.1189120367942 370.9146077967957L922.1189120367942 370.9146077967957ZM1007.3789883684385 410.80407384534584Q1003.7313941625321 410.80407384534584 1001.0590925250497 408.2683131674429Q998.3867908875673 405.75205834090843 998.3867908875673 401.81187636447464L998.3867908875673 401.81187636447464Q998.3867908875673 397.46207150930263 1001.5467388092618 394.5166879526615Q1004.7066867309562 391.5713043960204 1008.9199506265487 391.5713043960204L1008.9199506265487 391.5713043960204Q1013.2697554817207 391.5713043960204 1015.5909517945704 394.1655826280288Q1017.91214810742 396.7598608600372 1017.91214810742 400.54399602552314L1017.91214810742 400.54399602552314Q1017.91214810742 405.1863886512224 1014.810717739831 407.9952312482841Q1011.7287932236104 410.80407384534584 1007.3789883684385 410.80407384534584L1007.3789883684385 410.80407384534584ZM1037.008376597166 401.2462066747886L1061.02007963177 370.5049849180575L1037.2814585163248 339.74425730995796L1029.4206004148257 338.0472482408999L1029.4206004148257 331.4542704783522L1065.0968025677832 331.4542704783522L1065.0968025677832 338.0472482408999L1055.2658534780671 339.74425730995796L1068.0421861244242 357.86519323127976L1071.9823681008581 363.8925013041414L1075.766503266344 357.86519323127976L1089.1085056023871 339.74425730995796L1078.867933633933 338.0472482408999L1078.867933633933 331.4542704783522L1108.4973218626606 331.4542704783522L1108.4973218626606 338.0472482408999L1100.0707940714753 339.74425730995796L1076.7613016861367 368.8079758489994L1101.6117563295854 401.4022534857364L1109.7652022016118 402.65062797331944L1109.7652022016118 409.399652546815L1073.6598713185476 409.399652546815L1073.6598713185476 402.65062797331944L1082.9251507185777 401.2462066747886L1070.1488180722206 382.28651914462193L1065.935554176628 375.9666233012331L1062.151419011142 382.1499781850426L1048.6728757155195 401.2462066747886L1060.3178689825045 402.65062797331944L1060.3178689825045 409.399652546815L1027.6065562375566 409.399652546815L1027.6065562375566 402.65062797331944L1037.008376597166 401.2462066747886ZM1128.0226790825132 444.3736440505071Q1125.6234593641896 444.3736440505071 1123.30226305134 444.08105627997986Q1121.0005725898588 443.80797436082105 1120.0057741700662 443.242304671135L1120.0057741700662 443.242304671135L1120.0057741700662 431.03164171446394Q1120.8445257789108 431.59731140415 1123.30226305134 431.8703933233087Q1125.760000323769 432.1434752424675 1128.0226790825132 432.1434752424675L1128.0226790825132 432.1434752424675Q1134.7521978046402 432.1434752424675 1139.8822367145515 427.4425650626628Q1145.0122756244627 422.74165488285814 1149.7912092097413 409.399652546815L1149.7912092097413 409.399652546815L1143.042184636246 409.399652546815L1116.3581799641597 339.88079826953737L1109.9017431611915 338.0472482408999L1109.9017431611915 331.4542704783522L1143.7443952855115 331.4542704783522L1143.7443952855115 338.0472482408999L1132.938153627371 339.74425730995796L1146.6897788421525 381.1746856166184L1153.1462156451207 401.67533540489524L1159.1930295693508 381.03814465703897L1171.696280296549 339.74425730995796L1162.2749540855714 338.0472482408999L1162.2749540855714 331.4542704783522L1190.5194268671364 331.4542704783522L1190.5194268671364 338.0472482408999L1183.4973203744821 339.74425730995796Q1162.8406237752574 402.94321574384674 1159.1930295693508 411.50628449461124L1159.1930295693508 411.50628449461124Q1154.4140959840722 423.58040649170295 1150.493419859007 430.3879486193039Q1146.553237882573 437.2149965982734 1141.2086346076085 440.78456739870603Q1135.8835371840123 444.3736440505071 1128.0226790825132 444.3736440505071L1128.0226790825132 444.3736440505071ZM1246.1306091186846 339.4516695394307L1211.1566176149927 340.4464679592234L1208.6208569370897 353.78847029526656L1200.057788186325 353.78847029526656L1200.057788186325 331.4542704783522L1259.7456933738868 331.4542704783522L1262.5545359709483 337.5010844025823L1221.2606486238674 392.8196788836034L1211.5857463450993 401.53879444531583L1249.3490745944848 400.2709141063644L1255.2593475591354 384.5491979033661L1263.3932875797932 385.52449047179033L1260.8770327532588 409.399652546815L1197.8146152789495 409.399652546815L1194.8692317223083 403.2162976630055L1236.8653297186547 348.4438670203019L1246.1306091186846 339.4516695394307Z " fill="#333333" transform="matrix(0.6925792455958826,0,0,0.6925792455958825,0,44.17946913060783)"/></g></svg>