<?xml version="1.0" standalone="no"?>
<!DOCTYPE svg PUBLIC "-//W3C//DTD SVG 20010904//EN"
 "http://www.w3.org/TR/2001/REC-SVG-20010904/DTD/svg10.dtd">
<svg version="1.0" xmlns="http://www.w3.org/2000/svg"
 width="180.000000pt" height="180.000000pt" viewBox="0 0 180.000000 180.000000"
 preserveAspectRatio="xMidYMid meet">

<g transform="translate(0.000000,180.000000) scale(0.100000,-0.100000)"
fill="#000000" stroke="none">
<path d="M961 1429 c-147 -26 -302 -145 -369 -282 -67 -140 -93 -343 -57 -460
50 -167 173 -283 337 -318 65 -14 206 -6 273 16 96 31 92 24 104 149 22 228
22 228 3 221 -103 -44 -160 -57 -223 -53 -113 9 -154 57 -147 175 5 93 39 144
124 188 51 27 67 30 146 30 103 0 91 -17 113 155 20 154 21 149 -21 166 -44
19 -210 26 -283 13z"/>
</g>
</svg>
